Simulation
nRows=20
nColumns=15
endheader
time  TH_x TH_y TH_z SC_y  SC_z  SC_x  AC_y  AC_z  AC_x  GH_y  GH_z  GH_yy  EL_x  PS_y
0.0  0.000000  0.000000  0.000000  -40.62463579332126  3.5568094980573264  5.160354196070396  74.04338673151054  26.885258722113775  44.99450886233388  -1.5905857701452253  30.05456100087344  1.585048087565388  22.803363523694415  0.000000
0.04  0.000000  0.000000  0.000000  -37.04347815077835  1.1930606717842545  1.5973664204563418  70.65577462726074  25.197759591546042  45.108640035119286  4.393401821940527  29.017633578257474  -0.40589178620227323  25.070266077077676  0.000000
0.08  0.000000  0.000000  0.000000  -40.0360925856154  3.5190878993967383  3.1353154258356635  71.97639028274239  27.079852202056156  45.20469042947929  8.229825002881418  28.108260971135614  -3.4356610953375237  23.89909486057304  0.000000
0.12  0.000000  0.000000  0.000000  -40.18520176138709  2.3904646270312933  2.889552532312473  72.44193948712467  25.46857837131136  44.9642174403301  10.939347012574535  36.73709508859247  -6.550720488362255  26.847078549164834  0.000000
0.16  0.000000  0.000000  0.000000  -37.754826862586896  -0.9842412067814644  6.446875387361736  73.29063218006998  23.86280597025931  40.275890847055685  13.003035378868905  46.15627276734608  -11.47865386821001  26.607729285467872  0.000000
0.2  0.000000  0.000000  0.000000  -44.07862252115362  6.715640997342376  13.289724020251086  72.47382798826146  14.807208277117807  43.37110802680397  19.438146234216575  48.75695010649385  -19.011217986221634  26.0841795908343  0.000000
0.24  0.000000  0.000000  0.000000  -44.418504066887046  24.915947149924477  9.441241375464006  56.13072038848728  11.892999493065835  53.3650591881742  30.470486666034905  40.943287465150604  -22.881874878045835  31.775360095979618  0.000000
0.28  0.000000  0.000000  0.000000  -31.595510619933016  28.452433491897054  -9.048045263954844  68.6976083785152  21.088193970514595  64.55656952636579  10.624347837708953  51.42116913918351  -7.218636923078436  16.198076386432756  0.000000
0.32  0.000000  0.000000  0.000000  -31.562434096461697  5.227805043283112  -4.640007632635601  68.27025413491431  35.96830323633735  55.35747235585026  -18.805475839096317  23.39284301673098  51.06779894732524  6.421618591149792  0.000000
0.36  0.000000  0.000000  0.000000  -33.41201585501566  -18.85972570693206  18.51642399316582  44.59747307320765  28.30980290336626  42.982287019883145  -43.98147584765567  -2.3145521863261975  82.32791151788823  19.0579120707804  0.000000
0.4  0.000000  0.000000  0.000000  -18.064205716281975  37.81436729101397  5.087902980994037  47.42685920956958  4.980118289737696  73.33562772709345  -28.946543879674778  25.7930283478539  29.565326459426153  25.999666476531196  0.000000
0.44  0.000000  0.000000  0.000000  -42.106578875759155  78.9278275103011  0.5646960088493944  39.27526618590092  13.107063153829847  111.41248487304497  24.33616263739034  32.95782110275782  -28.53192996946129  19.4230980667845  0.000000
0.48  0.000000  0.000000  0.000000  -49.323822102287195  32.992209142918526  17.591793908635974  48.47664932548896  24.81566572641369  87.44058498037526  38.7141093347239  61.411648034266705  -33.242302723846315  26.05565862503533  0.000000
0.52  0.000000  0.000000  0.000000  -6.229841484519857  29.943604294353978  26.0960798479115  46.70681904200322  -11.492008568786662  47.563749142039704  50.84648978224812  127.03742879177585  -33.62582874127787  31.212119217945766  0.000000
0.56  0.000000  0.000000  0.000000  -9.022599091516428  51.85999974171967  38.18628259015441  38.765702235671306  -20.040904082628863  70.70201868431563  47.90686386908883  150.5805447271708  -78.55046953817562  27.728082080475406  0.000000
0.6  0.000000  0.000000  0.000000  -29.5647692563876  16.086090864055528  49.4724620424294  59.2766633536887  -7.677851967687912  54.177476704177764  41.56284502622099  117.08338453068099  -84.99354780447159  52.66837026113782  0.000000
0.64  0.000000  0.000000  0.000000  -31.854848003904447  -17.16128831448968  55.68325446399039  61.98167453717362  -10.772773456040852  20.26941253079315  62.846269240237156  68.56272512258536  -53.09424741902681  58.21660200928303  0.000000
0.68  0.000000  0.000000  0.000000  -47.68681359381909  25.720945795085626  50.05952866224137  58.16360332568375  -2.4277599107166337  63.2926441152347  72.24590641156729  43.126934636365995  -61.58669521205668  32.382782866436514  0.000000
0.72  0.000000  0.000000  0.000000  -53.938871126324436  55.47657558234992  62.68919463346876  49.982751218380336  -12.013832443166892  78.17805894696039  85.26304877566533  34.91735761958021  -77.26884221472446  18.744020937818522  0.000000
0.76  0.000000  0.000000  0.000000  -48.048220398549155  14.929255522928738  58.079425390625836  58.15890019069173  -8.472502083103986  49.97344598984018  101.48024109035144  37.16493338845887  -73.83991605570017  24.2412408285682  0.000000
